# xmcd CD database file
#
# Track frame offsets:
#	150
#	19124
#	37971
#	55164
#	71523
#	85452
#	102550
#	116997
#	129360
#	148503
#	165410
#	183414
#	197500
#	214364
#	233485
#	247642
#
# Disc length: 3531 seconds
#
# Revision: 1
# Processed by: cddbd v1.5.2PL0 Copyright (c) Steve Scherf et al.
# Submitted via: CDex 1.70beta2
#
DISCID=d70dc910
DTITLE=小林旭 - 小林旭全曲集
DYEAR=1900
DGENRE=Blues
TTITLE0=旅の酒～放浪編～
TTITLE1=ハバナギラ
TTITLE2=蒙古放浪記
TTITLE3=若き旅人
TTITLE4=旅心
TTITLE5=北へ
TTITLE6=遠い旅
TTITLE7=自動車ショー歌
TTITLE8=ごめんね
TTITLE9=愛の舟
TTITLE10=ゆるしておくれよ
TTITLE11=涙の恋の物語
TTITLE12=おまえに逢いたい
TTITLE13=ついて来るかい
TTITLE14=さよなら　さよなら　さよなら
TTITLE15=昔の名前で出ています
EXTD=
EXTT0=
EXTT1=
EXTT2=
EXTT3=
EXTT4=
EXTT5=
EXTT6=
EXTT7=
EXTT8=
EXTT9=
EXTT10=
EXTT11=
EXTT12=
EXTT13=
EXTT14=
EXTT15=
PLAYORDER=
